<svg width="126" height="20" viewBox="0 0 126 20" fill="none" xmlns="http://www.w3.org/2000/svg">
<path d="M36.625 15V3.72656H34.2969L30.8438 12.3281H30.7812L27.3281 3.72656H24.9922V15H26.8125V7H26.8672L30.125 15H31.5L34.7578 7H34.8125V15H36.625ZM43.7463 12.5234C43.5353 13.2109 42.8478 13.6641 41.9416 13.6641C40.6681 13.6641 39.8556 12.7734 39.8556 11.4453V11.3281H45.6447V10.6953C45.6447 8.17969 44.1759 6.54688 41.8244 6.54688C39.4338 6.54688 37.9181 8.27344 37.9181 10.8906C37.9181 13.5312 39.4181 15.1641 41.9025 15.1641C43.8634 15.1641 45.3166 14.0859 45.5666 12.5234H43.7463ZM41.8322 8.05469C42.9494 8.05469 43.6994 8.875 43.7384 10.0469H39.8713C39.9494 8.89062 40.7384 8.05469 41.8322 8.05469ZM46.7425 15H48.6878V9.92969C48.6878 8.92969 49.3441 8.20312 50.2816 8.20312C51.1878 8.20312 51.7503 8.77344 51.7503 9.69531V15H53.6409V9.88281C53.6409 8.89062 54.2816 8.20312 55.2191 8.20312C56.1722 8.20312 56.7034 8.78125 56.7034 9.79688V15H58.6488V9.32031C58.6488 7.66406 57.5784 6.5625 55.9456 6.5625C54.7503 6.5625 53.7659 7.20312 53.3675 8.22656H53.3206C53.0159 7.16406 52.18 6.5625 51.0081 6.5625C49.8831 6.5625 49.0081 7.19531 48.6488 8.15625H48.6097V6.71875H46.7425V15ZM64.6841 15.1328C66.7778 15.1328 68.0981 13.5078 68.0981 10.8594C68.0981 8.21094 66.77 6.57812 64.6841 6.57812C63.5122 6.57812 62.5669 7.17188 62.0981 8.14062H62.0513V3.72656H60.1059V15H62.0122V13.5859H62.0513C62.5356 14.5469 63.4653 15.1328 64.6841 15.1328ZM64.0825 8.17969C65.3247 8.17969 66.1059 9.21875 66.1059 10.8594C66.1059 12.5078 65.3325 13.5391 64.0825 13.5391C62.8794 13.5391 62.0434 12.4844 62.0434 10.8594C62.0434 9.25 62.8794 8.17969 64.0825 8.17969ZM74.6881 12.5234C74.4772 13.2109 73.7897 13.6641 72.8834 13.6641C71.61 13.6641 70.7975 12.7734 70.7975 11.4453V11.3281H76.5866V10.6953C76.5866 8.17969 75.1178 6.54688 72.7663 6.54688C70.3756 6.54688 68.86 8.27344 68.86 10.8906C68.86 13.5312 70.36 15.1641 72.8444 15.1641C74.8053 15.1641 76.2584 14.0859 76.5084 12.5234H74.6881ZM72.7741 8.05469C73.8913 8.05469 74.6413 8.875 74.6803 10.0469H70.8131C70.8913 8.89062 71.6803 8.05469 72.7741 8.05469ZM77.6844 15H79.6297V10.1797C79.6297 9.01562 80.2938 8.30469 81.3953 8.30469C81.7234 8.30469 82.0203 8.35156 82.1844 8.41406V6.65625C82.0438 6.625 81.825 6.57812 81.575 6.57812C80.5984 6.57812 79.8719 7.15625 79.5906 8.16406H79.5516V6.71875H77.6844V15ZM82.8759 9.09375C82.8759 10.3203 83.6728 11.1016 85.2588 11.4531L86.6338 11.7578C87.5009 11.9531 87.7978 12.2344 87.7978 12.7344C87.7978 13.3516 87.2119 13.7422 86.2666 13.7422C85.2822 13.7422 84.7275 13.3359 84.5791 12.5312H82.665C82.8213 14.1328 84.1025 15.1641 86.2666 15.1641C88.2978 15.1641 89.7353 14.1094 89.7353 12.5469C89.7353 11.3438 89.0713 10.6797 87.3525 10.2969L85.9775 9.99219C85.1103 9.79688 84.7666 9.46875 84.7666 8.99219C84.7666 8.38281 85.3369 7.97656 86.1963 7.97656C87.0947 7.97656 87.6494 8.45312 87.7275 9.20312H89.54C89.4931 7.63281 88.2119 6.54688 86.1963 6.54688C84.1963 6.54688 82.8759 7.57812 82.8759 9.09375ZM101.423 15H103.548L99.5481 3.72656H97.2747L93.2747 15H95.3528L96.3138 12.0859H100.462L101.423 15ZM98.3606 5.71875H98.4153L99.9856 10.5312H96.7825L98.3606 5.71875ZM104.404 15H106.349V10.1797C106.349 9.01562 107.013 8.30469 108.115 8.30469C108.443 8.30469 108.74 8.35156 108.904 8.41406V6.65625C108.763 6.625 108.544 6.57812 108.294 6.57812C107.318 6.57812 106.591 7.15625 106.31 8.16406H106.271V6.71875H104.404V15ZM114.916 12.5234C114.705 13.2109 114.017 13.6641 113.111 13.6641C111.838 13.6641 111.025 12.7734 111.025 11.4453V11.3281H116.814V10.6953C116.814 8.17969 115.345 6.54688 112.994 6.54688C110.603 6.54688 109.088 8.27344 109.088 10.8906C109.088 13.5312 110.588 15.1641 113.072 15.1641C115.033 15.1641 116.486 14.0859 116.736 12.5234H114.916ZM113.002 8.05469C114.119 8.05469 114.869 8.875 114.908 10.0469H111.041C111.119 8.89062 111.908 8.05469 113.002 8.05469ZM120.349 15.1328C121.412 15.1328 122.451 14.5781 122.927 13.6797H122.967V15H124.842V9.29688C124.842 7.63281 123.506 6.54688 121.451 6.54688C119.342 6.54688 118.021 7.65625 117.935 9.20312H119.74C119.865 8.51562 120.451 8.07031 121.373 8.07031C122.334 8.07031 122.92 8.57031 122.92 9.4375V10.0312L120.732 10.1562C118.717 10.2812 117.584 11.1641 117.584 12.6328C117.584 14.125 118.748 15.1328 120.349 15.1328ZM120.935 13.6641C120.092 13.6641 119.529 13.2344 119.529 12.5547C119.529 11.8984 120.068 11.4766 121.006 11.4141L122.92 11.2969V11.9297C122.92 12.9297 122.037 13.6641 120.935 13.6641Z" fill="white"/>
<path fill-rule="evenodd" clip-rule="evenodd" d="M10 1.83331C7.79174 1.83331 6.00067 3.62306 6.00002 5.8321V5.83331V5.8309V5.8321C5.99272 8.03381 7.77245 9.8254 9.97408 9.83331H9.9765H10C12.2087 9.83331 14 8.04207 14 5.83331C14 3.62371 12.2087 1.83331 10 1.83331Z" fill="white"/>
<path d="M5.54905 12.1685C6.7266 11.4477 8.30762 11 10 11C11.683 11 13.2632 11.4433 14.4424 12.1592C15.5968 12.8599 16.5 13.9152 16.5 15.1756C16.5 15.8183 16.2598 16.3606 15.8418 16.7852C15.4402 17.1929 14.8985 17.4696 14.3116 17.6631C13.1432 18.0483 11.5963 18.1667 10 18.1667C8.41346 18.1667 6.86731 18.0528 5.69757 17.6727C5.11006 17.4818 4.56644 17.2078 4.16292 16.8019C3.74239 16.3789 3.5 15.8368 3.5 15.1924C3.5 13.9343 4.39543 12.8747 5.54905 12.1685Z" fill="white"/>
</svg>
